<?xml version="1.0" standalone="no"?><!DOCTYPE svg PUBLIC "-//W3C//DTD SVG 1.1//EN" "http://www.w3.org/Graphics/SVG/1.1/DTD/svg11.dtd"><svg t="1712390478708" class="icon" viewBox="0 0 1024 1024" version="1.1" xmlns="http://www.w3.org/2000/svg" p-id="4749" xmlns:xlink="http://www.w3.org/1999/xlink" width="256" height="256"><path d="M959.5775 974.89583333h-25.1925v-9.5325a29.625 29.625 0 0 0-29.58-29.5875h-6.84V650.94083333c0-48.495-39.4575-87.9525-87.96-87.9525-48.495 0-87.9525 39.4575-87.9525 87.9525v48.795c0 2.01-0.0975 4.02-0.2775 6.015H586.6025c-13.7325 0-26.8275 2.715-38.895 7.485V479.86583333h15.5925a7.5 7.5 0 0 0 7.5-7.5v-48.51a7.5 7.5 0 0 0-7.5-7.5h-9.2925l-16.7025-42.945-42.9225-110.3775a7.515 7.515 0 0 0-6.945-4.785 7.2375 7.2375 0 0 0-7.005 4.695l-61.83 153.4125h-9.6375a7.5 7.5 0 0 0-7.5 7.5v48.51a7.5 7.5 0 0 0 7.5 7.5h17.2275v39.1875h-7.5v-2.0775a7.5 7.5 0 0 0-7.5-7.5h-18.5475a7.5 7.5 0 0 0-7.5 7.5v2.0775h-10.3275v-2.0775a7.5 7.5 0 0 0-7.5-7.5h-22.6725a7.5 7.5 0 0 0-7.5 7.5v2.0775h-10.3275v-2.0775a7.5 7.5 0 0 0-7.5-7.5h-18.5475a7.5 7.5 0 0 0-7.5 7.5v2.0775h-9.0975v-39.1875h15.0825a7.5 7.5 0 0 0 7.5-7.5v-48.51a7.5 7.5 0 0 0-7.5-7.5h-9.2925l-16.7025-42.945-42.93-110.3775a7.515 7.515 0 0 0-6.945-4.785 7.8225 7.8225 0 0 0-7.005 4.695L154.55 416.35583333h-9.6375a7.5 7.5 0 0 0-7.5 7.5v48.51a7.5 7.5 0 0 0 7.5 7.5h17.745v301.5525c-15.765 10.695-26.145 28.7625-26.145 49.2075s10.38 38.5125 26.145 49.2075v55.95h-11.205a29.6175 29.6175 0 0 0-29.58 29.5875v9.5325h-27.45a7.5 7.5 0 0 0 0 15h865.1475a7.5 7.5 0 0 0 0.0075-15.0075z m-176.955-96.6825H697.28v-22.7175h85.3425z m15-22.71h21.96c6.2625 0 11.3625 5.0925 11.3625 11.355s-5.1 11.3625-11.3625 11.3625h-21.96z m-115.3425 22.71H596.945v-25.2975a45.4425 45.4425 0 0 0 15.0075 2.58h70.3275z m-24.5475-114.15h-45.78c-5.265 0-10.2975 0.9375-15.0075 2.58V746.48333333h104.9325a64.035 64.035 0 0 1-44.145 17.58z m-75.7875 11.31c-9.6075 8.385-15.7125 20.685-15.7125 34.41s6.105 26.025 15.7125 34.41v33.7875a64.965 64.965 0 0 1-34.23-12.705V759.36833333a65.1675 65.1675 0 0 1 34.23-12.6375z m-34.23 160.4025v-24.285c10.68 4.215 22.2 6.705 34.23 7.23v17.055z m49.23 0v-16.8225h85.335v16.8225z m15.0075-121.005a4.9875 4.9875 0 0 1 0-9.975h45.78c8.3925 0 16.6125-1.0575 24.5475-2.97v12.945z m170.67-202.215V705.75833333h-20.0025c0.1125-2.0025 0.165-4.005 0.165-6.015v-48.795a47.145 47.145 0 0 1 19.8375-38.3925z m74.595 45.9825a47.265 47.265 0 0 1-47.22 47.2125h-12.375V605.43083333a46.86 46.86 0 0 1 12.375-1.7025 47.265 47.265 0 0 1 47.22 47.2125z m-159.9375 277.2375v-16.8225h85.3425v16.8225z m0-121.005v-17.7825a105.2475 105.2475 0 0 0 54.525-50.4975h30.8175v68.28z m185.6775 121.005h-85.335v-16.8225h21.96c28.725 0 52.095-23.37 52.095-52.095s-23.37-52.0875-52.095-52.0875h-21.96v-68.28h12.375c30.345 0 57.1425-15.4425 72.96-38.88z" fill="#E6E7E8" p-id="4750"></path><path d="M672.0125 447.36083333c0 9.075 7.095 16.455 16.02 17.0625v25.1025h-0.3525a7.5 7.5 0 0 0-7.5 7.5c0 28.0425 22.815 50.865 50.8575 50.865s50.8575-22.815 50.8575-50.865a7.5 7.5 0 0 0-7.5-7.5h-0.3525V464.40833333a17.1525 17.1525 0 0 0 15.8625-17.0475c0-4.71-1.905-8.97-4.9875-12.0825 3.36-3.5325 6.735-7.14 10.1325-10.83l1.0725-1.155c5.31-5.7825 10.6125-11.7525 15.8775-17.835l1.125-1.2975c16.6725-19.3425 32.67-39.9225 45.84-60.51l0.045-0.0525 0.195-0.3075a335.4525 335.4525 0 0 0 11.4-19.2525c0.24-0.435 0.525-0.9 0.7575-1.3425 0.0375-0.075 0.03-0.15 0.0675-0.225a214.425 214.425 0 0 0 11.2725-24.42c0.075-0.165 0.2175-0.27 0.285-0.4425 0.4125-1.0725 0.6975-2.1 1.08-3.1575 0.6075-1.71 1.2075-3.42 1.74-5.1075 0.6675-2.1075 1.2375-4.17 1.785-6.2175 0.4125-1.545 0.8325-3.09 1.1775-4.6125 0.5025-2.2575 0.87-4.44 1.2225-6.6225 0.2025-1.2675 0.465-2.55 0.615-3.8025 0.4125-3.4275 0.66-6.7725 0.66-9.99 0-87.57-71.2425-158.82-158.82-158.82s-158.82 71.25-158.82 158.82c0 52.995 55.185 123.21 105.015 175.8075a17.0625 17.0625 0 0 0-6.63 13.455z m52.71 42.165v-24.99h12.63v24.99z m-21.69-24.99h6.6975v24.99h-6.6975z m49.32 24.99v-24.99h6.6975v24.99z" fill="#E6E7E8" p-id="4751"></path><path d="M133.46 401.35583333v9.5775h25.3275v-9.5775h18.54v9.5775h25.3275v-9.5775h22.68v9.5775h25.3275v-9.5775h4.1775l-18.5625-47.73-21.12-54.2925-21.8175-56.085-63.72 158.1075zM397.505 401.35583333v9.5775h25.3275v-9.5775h18.5475v9.5775h25.3275v-9.5775h22.6725v9.5775h25.3275v-9.5775h4.185l-18.57-47.73-21.12-54.2925-21.81-56.085-63.7275 158.1075z" fill="#FA759E" p-id="4752"></path><path d="M403.6925 449.86583333v69.1125H246.6725v-69.1125H140.1575v470.91h370.0575V449.86583333z" fill="#FFD7E5" p-id="4753"></path><path d="M406.52 494.47583333v9.5775h-25.3275v-9.5775h-18.54v9.5775H337.325v-9.5775h-22.68v9.5775h-25.3275v-9.5775h-18.54v9.5775H245.45v-9.5775h-18.5475v48.51h198.1575v-48.51z" fill="#6DC9F7" p-id="4754"></path><path d="M192.0875 569.12333333a22.83 22.83 0 0 0-22.83 22.83v46.1625h45.6675v-46.1625a22.845 22.845 0 0 0-22.8375-22.83zM460.595 569.12333333a22.83 22.83 0 0 0-22.83 22.83v46.1625h45.6675v-46.1625a22.845 22.845 0 0 0-22.8375-22.83z" fill="#0089EF" p-id="4755"></path><path d="M269.2625 401.35583333h-18.6v9.5775h-25.3275v-9.5775h-22.68v9.5775h-25.3275v-9.5775h-18.54v9.5775h-25.3275v-9.5775h-18.5475v48.51h154.35zM533.3075 401.35583333h-18.6v9.5775h-25.3275v-9.5775h-22.6725v9.5775h-25.3275v-9.5775h-18.5475v9.5775h-25.3275v-9.5775h-18.54v48.51h154.3425zM406.52 494.47583333v9.5775h-25.3275v-9.5775h-18.54v9.5775H337.325v-9.5775h-22.68v9.5775h-25.3275v-9.5775h-18.54v9.5775H245.45v-9.5775h-18.5475v48.51h198.1575v-48.51zM324.8225 733.10333333a39.255 39.255 0 0 0-39.255 39.255v148.4175h78.51V772.35833333a39.255 39.255 0 0 0-39.255-39.255z" fill="#6DC9F7" p-id="4756"></path><path d="M336.0725 734.94083333a38.7825 38.7825 0 0 0-11.25-1.8375 39.255 39.255 0 0 0-39.255 39.255v148.4175h22.5V772.35833333c0-17.745 11.8425-32.5575 28.005-37.4175z" fill="#FFFFFF" p-id="4757"></path><path d="M780.005 547.99583333c-44.3625 0-80.4525 36.09-80.4525 80.4525v48.795c0 4.62-0.435 9.135-1.275 13.515h-141.675c-54.54 0-98.9175 44.37-98.9175 99.285 0 54.54 44.37 98.9175 98.9175 98.9175h232.98a44.6475 44.6475 0 0 0 44.595-44.595 44.6475 44.6475 0 0 0-44.595-44.595H581.9525a12.495 12.495 0 0 1-12.48-12.48c0-6.885 5.6025-12.48 12.48-12.48h45.78c39.84 0 74.175-24.0075 89.31-58.3125h62.9625c44.3625 0 80.4525-36.09 80.4525-80.4525v-7.59c0-44.37-36.09-80.46-80.4525-80.46zM627.7325 749.06333333h-45.78c-21.075 0-38.22 17.145-38.22 38.22s17.145 38.22 38.22 38.22h207.63a18.8775 18.8775 0 0 1 18.855 18.855 18.8775 18.8775 0 0 1-18.855 18.8625H556.6025c-40.35 0-73.1775-32.8275-73.1775-73.545 0-40.35 32.8275-73.1775 73.1775-73.1775h131.25a71.8275 71.8275 0 0 1-60.12 32.565z m206.9925-113.025c0 30.1725-24.5475 54.7125-54.72 54.7125h-55.65c0.615-4.4175 0.93-8.9325 0.93-13.515v-48.795c0-30.1725 24.5475-54.7125 54.7125-54.7125s54.72 24.5475 54.72 54.7125v7.5975z" fill="#6DC9F7" p-id="4758"></path><path d="M874.7975 920.77583333H121.4525a22.0875 22.0875 0 0 0-22.0875 22.0875v17.0325h797.5125v-17.0325a22.08 22.08 0 0 0-22.08-22.0875z" fill="#FA759E" p-id="4759"></path><path d="M146.18259875 856.31248302a51.93 51.93 0 1 0 39.77899312-95.94024844 51.93 51.93 0 1 0-39.77899312 95.94024844Z" fill="#0089EF" p-id="4760"></path><path d="M388.9175 832.65833333m-42.8025 0a42.8025 42.8025 0 1 0 85.605 0 42.8025 42.8025 0 1 0-85.605 0Z" fill="#0089EF" p-id="4761"></path><path d="M853.7675 235.59083333c0-83.5725-67.7475-151.32-151.32-151.32s-151.32 67.7475-151.32 151.32c0 55.4925 66.69 133.4475 111.5175 179.595H742.25c44.8275-46.1475 111.5175-124.1025 111.5175-179.595z" fill="#FA759E" p-id="4762"></path><path d="M809.225 218.20583333c0-83.5725-47.805-133.9275-106.7775-133.9275S595.67 134.63333333 595.67 218.20583333c0 55.4925 47.055 150.8325 78.6975 196.98h56.1675c31.635-46.1475 78.69-141.495 78.69-196.98z" fill="#FFD7E5" p-id="4763"></path><path d="M748.1825 207.21083333c0-83.5725-20.475-122.94-45.735-122.94s-45.735 39.375-45.735 122.94c0 55.4925 20.16 161.82 33.705 207.9675h24.06c13.5525-46.14 33.705-152.475 33.705-207.9675z" fill="#FA759E" p-id="4764"></path><path d="M742.73 415.17833333H659.1875a9.675 9.675 0 1 0 0 19.35h83.5425a9.675 9.675 0 1 0 0-19.35zM657.6725 474.52583333a43.365 43.365 0 0 0 86.73 0z" fill="#0089EF" p-id="4765"></path><path d="M214.925 645.62333333a7.5 7.5 0 0 0 7.5-7.5v-46.1625c0-16.725-13.605-30.33-30.33-30.33s-30.33 13.605-30.33 30.33v46.1625a7.5 7.5 0 0 0 7.5 7.5z m-38.1675-53.67c0-8.4525 6.8775-15.33 15.33-15.33s15.33 6.8775 15.33 15.33v38.6625H176.75v-38.6625zM430.2575 638.12333333a7.5 7.5 0 0 0 7.5 7.5h45.6675a7.5 7.5 0 0 0 7.5-7.5v-46.1625c0-16.725-13.605-30.33-30.33-30.33s-30.33 13.605-30.33 30.33v46.1625z m15-46.17c0-8.4525 6.8775-15.33 15.33-15.33s15.33 6.8775 15.33 15.33v38.6625H445.25v-38.6625z" fill="#3A2C60" p-id="4766"></path><path d="M929.5775 952.39583333h-25.1925v-9.5325a29.6175 29.6175 0 0 0-29.58-29.58h-6.84V628.44083333c0-48.495-39.4575-87.9525-87.96-87.9525-48.495 0-87.9525 39.4575-87.9525 87.9525v48.795c0 2.01-0.0975 4.0125-0.2775 6.015H556.6025c-13.7325 0-26.8275 2.715-38.895 7.485V457.35833333h15.5925a7.5 7.5 0 0 0 7.5-7.5v-48.5025a7.5 7.5 0 0 0-7.5-7.5h-9.2925l-59.625-153.3225a7.515 7.515 0 0 0-6.945-4.785h-0.045c-3.06 0-5.8125 1.86-6.96 4.695l-61.83 153.4125h-9.6375a7.5 7.5 0 0 0-7.5 7.5v48.5025a7.5 7.5 0 0 0 7.5 7.5h17.2275v39.1875h-7.5v-2.07a7.5 7.5 0 0 0-7.5-7.5h-18.5475a7.5 7.5 0 0 0-7.5 7.5v2.07h-10.3275v-2.07a7.5 7.5 0 0 0-7.5-7.5h-22.6725a7.5 7.5 0 0 0-7.5 7.5v2.07h-10.3275v-2.07a7.5 7.5 0 0 0-7.5-7.5h-18.5475a7.5 7.5 0 0 0-7.5 7.5v2.07h-9.0975V457.35833333h15.0825a7.5 7.5 0 0 0 7.5-7.5v-48.5025a7.5 7.5 0 0 0-7.5-7.5h-9.2925L200.33 240.53333333a7.515 7.515 0 0 0-6.945-4.785h-0.045c-3.06 0-5.8125 1.86-6.96 4.695L124.55 393.85583333h-9.6375a7.5 7.5 0 0 0-7.5 7.5v48.5025a7.5 7.5 0 0 0 7.5 7.5h17.745v301.5525c-15.765 10.695-26.145 28.7625-26.145 49.2075s10.38 38.5125 26.145 49.2075v55.95h-11.205a29.6175 29.6175 0 0 0-29.58 29.58v9.5325h-27.45a7.5 7.5 0 0 0 0 15h865.1475a7.5 7.5 0 0 0 0.0075-14.9925z m-76.62-39.12H767.6225v-16.8225h21.96c28.725 0 52.095-23.37 52.095-52.095s-23.37-52.0875-52.095-52.0875h-21.96v-68.28h12.375c30.345 0 57.1425-15.4425 72.96-38.88z m-185.6775 0v-16.8225h85.3425v16.8225z m-100.335 0v-16.8225h85.335v16.8225z m-49.23 0v-24.285c10.68 4.215 22.2 6.705 34.23 7.23v17.0625h-34.23z m-15-31.635v31.635h-36.0975v-66.705a106.995 106.995 0 0 0 36.0975 35.07z m79.2375-89.37a4.9875 4.9875 0 0 1 0-9.975h45.78c8.3925 0 16.6125-1.0575 24.5475-2.97v12.945z m85.3275-17.7825a105.3075 105.3075 0 0 0 54.525-50.4975h30.8175v68.28H667.28z m30.9975-76.23h81.7275c34.305 0 62.22-27.9075 62.22-62.2125v-7.5975c0-34.305-27.915-62.2125-62.22-62.2125s-62.2125 27.9075-62.2125 62.2125v48.795c0 2.01-0.075 4.02-0.21 6.015h-10.815c0.15-2.0025 0.285-4.005 0.285-6.015v-48.795c0-40.2225 32.7225-72.9525 72.9525-72.9525s72.96 32.7225 72.96 72.9525v7.5975c0 40.2225-32.7225 72.9525-72.96 72.9525H556.6025c-44.49 0-80.6775 36.195-80.6775 80.685 0 44.685 36.195 81.045 80.6775 81.045h232.9725c14.535 0 26.3625-11.8275 26.3625-26.3625s-11.8275-26.355-26.3625-26.355H581.9525c-16.9425 0-30.72-13.7775-30.72-30.72s13.7775-30.72 30.72-30.72h45.78c25.4025 0 48.9-12.1725 63.8625-32.58h13.0425a90.15 90.15 0 0 1-76.9125 43.3125h-45.78c-11.0175 0-19.98 8.9625-19.98 19.9875s8.9625 19.9875 19.98 19.9875h207.63c20.46 0 37.095 16.635 37.095 37.0875s-16.6425 37.095-37.095 37.095H556.6025c-50.4075 0-91.41-41.01-91.41-91.41 0-50.61 41.01-91.785 91.41-91.785h141.675z m81.72-117.03a47.265 47.265 0 0 1 47.22 47.2125v7.5975a47.265 47.265 0 0 1-47.22 47.2125h-12.375V582.93083333a46.86 46.86 0 0 1 12.375-1.7025z m-27.375 102.03h-20.0025c0.1125-1.995 0.165-4.005 0.165-6.015v-48.795a47.145 47.145 0 0 1 19.8375-38.3925z m-124.89 58.3125h-45.78c-5.265 0-10.2975 0.9375-15.0075 2.58v-20.16h104.9325a64.1025 64.1025 0 0 1-44.145 17.58z m-75.7875 80.1225v33.7875a64.9725 64.9725 0 0 1-34.23-12.7125v-105.9a65.1675 65.1675 0 0 1 34.23-12.6375v28.65c-9.6075 8.385-15.7125 20.685-15.7125 34.41s6.1125 26.0175 15.7125 34.4025z m237.6375 11.31c6.2625 0 11.3625 5.0925 11.3625 11.355s-5.1 11.3625-11.3625 11.3625h-21.96v-22.7175z m-36.96 22.7175H667.28v-22.7175h85.3425z m-100.3425 0H566.945v-25.2975a45.4425 45.4425 0 0 0 15.0075 2.58h70.3275z m-149.565-28.4025a65.88 65.88 0 0 1-11.79-37.65c0-13.9125 4.38-26.805 11.79-37.44z m-45.45-563.7l36.0675 92.7225 15.675 40.2975a7.365 7.365 0 0 0-1.8 4.71v2.07h-10.3275v-2.07a7.5 7.5 0 0 0-7.5-7.5H466.7a7.5 7.5 0 0 0-7.5 7.5v2.07h-10.3275v-2.07a7.5 7.5 0 0 0-7.5-7.5h-18.54a7.5 7.5 0 0 0-7.5 7.5v2.07h-10.3275v-2.07a7.275 7.275 0 0 0-1.5225-4.2975z m-70.8 145.2375h3.5475v2.07a7.5 7.5 0 0 0 7.5 7.5h25.3275a7.5 7.5 0 0 0 7.5-7.5v-2.07h3.54v2.07a7.5 7.5 0 0 0 7.5 7.5h25.3275a7.5 7.5 0 0 0 7.5-7.5v-2.07h7.68v2.07a7.5 7.5 0 0 0 7.5 7.5h25.3275a7.5 7.5 0 0 0 7.5-7.5v-2.07h3.5925v33.5025H386.465z m116.25 48.5025v240.7575c-31.3725 18.5925-52.5225 52.785-52.5225 91.92 0 5.88 0.6 11.61 1.5225 17.235-0.015 0.1875-0.105 0.3525-0.105 0.5475v105.4575h-32.6925v-40.335c12.2925-9.18 20.3025-23.7975 20.3025-40.2825s-8.01-31.1025-20.3025-40.2825V550.48583333h6.1425a7.5 7.5 0 0 0 7.5-7.5V494.48333333a7.5 7.5 0 0 0-7.5-7.5h-13.8675v-29.625z m-106.2975 455.9175v-30.9375a49.635 49.635 0 0 0 7.5-1.665v32.6025z m-24.8475 0v-33.465c3.15 1.1625 6.4425 2.01 9.8475 2.5275v30.9375z m-123.525 0V550.48583333h155.8725v234.1575a49.875 49.875 0 0 0-32.3475 0.8625V772.35833333c0-25.785-20.97-46.755-46.755-46.755s-46.755 20.97-46.755 46.755v140.9175z m140.8725-45.315c-19.47 0-35.3025-15.8325-35.3025-35.3025s15.8325-35.3025 35.3025-35.3025 35.3025 15.8325 35.3025 35.3025-15.8325 35.3025-35.3025 35.3025zM293.0675 772.35833333c0-17.505 14.2425-31.755 31.755-31.755s31.755 14.2425 31.755 31.755v21.8325a50.1825 50.1825 0 0 0 0 76.935v42.15h-63.51z m-22.2975-260.805a7.5 7.5 0 0 0 7.5-7.5v-2.07h3.5475v2.07a7.5 7.5 0 0 0 7.5 7.5h25.3275a7.5 7.5 0 0 0 7.5-7.5v-2.07h7.6725v2.07a7.5 7.5 0 0 0 7.5 7.5h25.3275a7.5 7.5 0 0 0 7.5-7.5v-2.07h3.5475v2.07a7.5 7.5 0 0 0 7.5 7.5h25.3275a7.5 7.5 0 0 0 7.5-7.5v-2.07h3.54v33.5025H234.4025V501.98333333h3.54v2.07a7.5 7.5 0 0 0 7.5 7.5z m-77.55-247.935l36.0675 92.73 15.675 40.2975a7.38 7.38 0 0 0-1.8 4.7175v2.07h-10.3275v-2.07a7.5 7.5 0 0 0-7.5-7.5h-22.6725a7.5 7.5 0 0 0-7.5 7.5v2.07h-10.3275v-2.07a7.5 7.5 0 0 0-7.5-7.5h-18.5475a7.5 7.5 0 0 0-7.5 7.5v2.07h-10.3275v-2.07a7.275 7.275 0 0 0-1.5225-4.2975z m-70.8075 145.2375h3.5475v2.07a7.5 7.5 0 0 0 7.5 7.5h25.3275a7.5 7.5 0 0 0 7.5-7.5v-2.07h3.5475v2.07a7.5 7.5 0 0 0 7.5 7.5h25.3275a7.5 7.5 0 0 0 7.5-7.5v-2.07h7.6725v2.07a7.5 7.5 0 0 0 7.5 7.5h25.3275a7.5 7.5 0 0 0 7.5-7.5v-2.07h3.6v33.5025h-139.35z m25.245 48.5025h91.5225v29.6175h-12.27a7.5 7.5 0 0 0-7.5 7.5v48.5025a7.5 7.5 0 0 0 7.5 7.5h6.1425v362.7975H173.45v-46.2525c29.235-3.705 51.93-28.68 51.93-58.905 0-32.775-26.6625-59.43-59.43-59.43-6.3825 0-12.5175 1.035-18.285 2.91V457.35833333z m-26.145 350.76c0-24.5025 19.935-44.43 44.43-44.43s44.43 19.935 44.43 44.43-19.935 44.43-44.43 44.43-44.43-19.9275-44.43-44.43z m26.145 56.5275c3.465 1.125 7.08 1.9125 10.785 2.385v46.2525h-10.785z m-40.7925 78.21c0-8.04 6.54-14.58 14.58-14.58h753.345c8.04 0 14.58 6.54 14.58 14.58v9.5325H106.865zM838.3175 290.04083333a7.485 7.485 0 0 0-10.155 3.06 306.3 306.3 0 0 1-11.76 19.9125 7.5 7.5 0 1 0 12.63 8.085 319.1925 319.1925 0 0 0 12.345-20.9025 7.5075 7.5075 0 0 0-3.06-10.155z" fill="#3A2C60" p-id="4767"></path><path d="M642.0125 424.86083333c0 9.075 7.095 16.4475 16.02 17.055v25.1025h-0.3525a7.5 7.5 0 0 0-7.5 7.5c0 28.0425 22.815 50.865 50.8575 50.865s50.8575-22.815 50.8575-50.865a7.5 7.5 0 0 0-7.5-7.5h-0.3525v-25.1175a17.145 17.145 0 0 0 15.8625-17.04c0-4.74-1.9275-9.0375-5.0475-12.15 22.0275-23.1675 41.295-45.645 56.9925-66.8175a7.5 7.5 0 0 0-12.0525-8.9325c-16.5375 22.3125-36.9675 46.095-60.7425 70.725h-73.2375c-41.07-42.5625-107.1975-119.31-107.1975-172.095 0-79.2975 64.5225-143.8125 143.82-143.8125s143.82 64.515 143.82 143.8125c0 9.99-2.4525 21.4875-7.2975 34.1775a7.515 7.515 0 0 0 4.335 9.6825 7.515 7.515 0 0 0 9.6825-4.335c5.49-14.4075 8.28-27.705 8.28-39.525 0-87.57-71.2425-158.8125-158.82-158.8125s-158.82 71.2425-158.82 158.8125c0 53.0175 55.2 123.1875 105.045 175.785a17.1075 17.1075 0 0 0-6.6525 13.485z m31.02 17.175h6.6975v24.99h-6.6975z m21.69 24.99v-24.99h12.63v24.99z m6.315 43.3575a35.925 35.925 0 0 1-35.07-28.365h70.14a35.9175 35.9175 0 0 1-35.07 28.365z m21.315-43.3575v-24.99h6.6975v24.99z m20.3775-39.99H659.1875a2.175 2.175 0 0 1 0-4.3575h83.5425a2.175 2.175 0 1 1 0 4.3575z" fill="#3A2C60" p-id="4768"></path></svg>